<?xml version="1.0" encoding="UTF-8"?>
<svg id="Layer_1" data-name="Layer 1" xmlns="http://www.w3.org/2000/svg" viewBox="0 0 600 600">
  <defs>
    <style>
      .cls-1 {
        fill: #d8dddc;
      }

      .cls-2 {
        fill: #ed1d25;
      }

      .cls-3 {
        fill: #0396da;
      }
    </style>
  </defs>
  <path class="cls-1" d="M26.66,309.57c-6.7-7.17-2.26-19.56-.06-27.94,13.63-51.87,49.97-101.58,91.92-134.3,22.98-17.92,54.5-25.82,40.92-63.01-1.06-2.9-3.67-6.21-4.12-9.03-2.33-14.62,10.83-17.21,21.68-20.3,56.41-16.09,119.47-7.76,172.65,15.38,21.35,9.29,42.48,26.76,63.46,5.02,7.29-7.55,9.79-20.88,23.84-16.03,8.03,2.77,26.4,24.39,32.2,31.81,30.13,38.47,50.56,89.67,55.27,138.5,2.16,22.41-3.59,43.91,22.21,54.07,8.06,3.17,12.85,2.09,20.13,3.55,11.82,2.36,10.9,14.35,8.97,23.48-13.15,62.22-57.46,116.2-108.02,152.39-13.66,9.78-30.87,15.78-30.87,36.45,0,11.19,9.78,23.63,7.61,33.23-1.84,8.13-14.86,10.77-21.73,12.47-58.94,14.54-117.82,9.4-173.07-15.48-20.85-9.39-36.79-24.81-59.24-7.25-9.63,7.53-11.37,21.04-25.89,18.72-6.11-.98-20.81-16.64-25.49-21.85-36.58-40.67-58.14-97.07-63.55-151.26-2.39-23.91,1.47-46.76-28.9-53.52-6.43-1.43-15.03.15-19.91-5.08ZM560.39,303.75c-16.3-2.83-34.69-8.55-43.14-23.96-9.23-16.84-6.93-26.41-8.62-43.99-4.81-50.26-22.63-99.74-55.66-138.11-5.94-6.9-12.45-13.32-18.87-19.77-.66-.59-1.06-.35-1.74,0-2.57,1.32-11.61,11.57-15.38,14.49-29.71,23.03-55.2.61-83.13-11.53-38.77-16.84-106.4-24.38-147.03-12.55-3.92,1.14-13.51,3.76-12.98,8.54.54,4.81,4.34,11.02,4.97,16.99,4.43,41.97-36.13,53.13-61.29,75.28-11.81,10.4-24.3,24.54-34.16,36.86-21.75,27.17-35.31,55.59-43.86,89.46.04,2.63,8.41,2.86,11.2,3.64,45.14,12.57,37.94,43.93,42.29,81.34,5.37,46.15,30.47,99.37,62.68,132.85,2.33,2.42,8.39,8.73,10.95,10.1.71.38,1.1.82,1.8,0,10-15.11,27.34-26.22,46-25,16.23,1.06,29.47,11.29,43.71,17.67,39.31,17.61,88.84,25.09,131.56,19.89,12.37-1.51,24.34-5.18,36.45-7.82-.85-13.31-7.65-28.53-3.5-41.64,7.52-23.72,44.5-41.19,63.2-57.8,13.5-11.99,30.86-33.1,41.57-47.87,16.52-22.79,26.41-49.83,32.96-77.07Z"/>
  <path class="cls-2" d="M462.93,180.88l-34.45,25.6c-30.34-38.51-77.88-65.87-128.13-64.98-82.28,1.46-151.04,62.14-159.99,144.27-7.19,65.97,37.61,138.64,99.74,161.53,71.4,26.3,133.82,6.08,183.94-47.99,1.41-1.52,4.77-7.25,6.1-7.07l31.16,30.28c-30.31,40.34-79.98,71.84-130.37,79.22-68.99,10.09-155.86-22.01-194.45-81.47-69.78-107.5-44.68-231.88,65.86-297.85,81.3-48.52,194.83-25.04,253.67,47.64,1.5,1.85,7.9,9.12,6.92,10.83Z"/>
  <path class="cls-3" d="M384.13,183.62v68.39l85.82-63c3.99,6.59,8.83,12.78,12.28,19.71,1.43,2.87,7.98,17.62,6.72,19.61l-81.14,61.83,82.24,83.12c-2.66,7.48-6.33,14.48-10.2,21.37-1.28,2.28-9.88,17.19-10.77,17.72-.61.36-1.3.15-1.93-.02l-83.03-80.53v85.92h-44.72v-234.09h44.72Z"/>
  <polygon class="cls-3" points="240.31 184.5 240.31 252.01 329.76 185.37 329.76 240.17 264.01 291.02 329.76 355.9 329.76 415.08 240.31 332.67 240.31 416.84 195.59 416.84 195.59 184.5 240.31 184.5"/>
</svg>