<svg viewBox="0 0 1688 1520" xmlns="http://www.w3.org/2000/svg" style="width:100%;height:auto;background:#ffffff;display:block" id="swimlane-svg"><defs><marker id="arrowhead" viewBox="0 0 10 10" refX="9" refY="5" markerWidth="7" markerHeight="7" orient="auto-start-reverse"><path d="M 0 0 L 10 5 L 0 10 z" fill="#334155" /></marker><pattern id="gridp" width="24" height="24" patternUnits="userSpaceOnUse"><path d="M 24 0 L 0 0 0 24" fill="none" stroke="#e5e7eb" stroke-width="0.5" /></pattern></defs><rect x="40" y="84" width="1608" height="1412" fill="url(#gridp)" opacity="0.5" /><rect x="40" y="84" width="300" height="72" fill="white" opacity="0.9" /><text x="52" y="114" fill="#0f172a" font-family="'Noto Sans JP',sans-serif" font-size="13" font-weight="700">步骤</text><text x="52" y="134" fill="#0f172a" opacity="0.7" font-family="'Noto Sans JP',sans-serif" font-size="11">说明</text><line x1="40" x2="340" y1="156" y2="156" stroke="#334155" stroke-width="1.2" vector-effect="non-scaling-stroke" /><rect x="40" y="84" width="300" height="1412" fill="none" stroke="#334155" stroke-width="1.2" vector-effect="non-scaling-stroke" /><g><text x="52" y="226" fill="#0f172a" font-family="'Noto Sans JP',sans-serif" font-size="12" font-weight="600">1. 价格试算</text><text x="52" y="246" fill="#0f172a" opacity="0.78" font-family="'Noto Sans JP',sans-serif" font-size="10" font-weight="400"><tspan x="52" dy="0"><tspan font-weight="400" font-style="normal" text-decoration="none">根据材料、尺寸、加工条件计算试算单价，内容确定后予以确</tspan></tspan><tspan x="52" dy="14"><tspan font-weight="400" font-style="normal" text-decoration="none">认。</tspan></tspan></text></g><g><text x="52" y="306" fill="#0f172a" font-family="'Noto Sans JP',sans-serif" font-size="12" font-weight="600">2. 价格表</text><text x="52" y="326" fill="#0f172a" opacity="0.78" font-family="'Noto Sans JP',sans-serif" font-size="10" font-weight="400"><tspan x="52" dy="0"><tspan font-weight="400" font-style="normal" text-decoration="none">按客户 × 产品设定价格。已确认的价格试算可作为基准单价</tspan></tspan><tspan x="52" dy="14"><tspan font-weight="400" font-style="normal" text-decoration="none">。</tspan></tspan></text></g><g><text x="52" y="406" fill="#0f172a" font-family="'Noto Sans JP',sans-serif" font-size="12" font-weight="600">3. 报价单</text><text x="52" y="426" fill="#0f172a" opacity="0.78" font-family="'Noto Sans JP',sans-serif" font-size="10" font-weight="400"><tspan x="52" dy="0"><tspan font-weight="400" font-style="normal" text-decoration="none">单价自动从价格表带入。将发行的 PDF 提交给客户。</tspan></tspan></text></g><g><text x="52" y="506" fill="#0f172a" font-family="'Noto Sans JP',sans-serif" font-size="12" font-weight="600">4. 订单</text><text x="52" y="526" fill="#0f172a" opacity="0.78" font-family="'Noto Sans JP',sans-serif" font-size="10" font-weight="400"><tspan x="52" dy="0"><tspan font-weight="400" font-style="normal" text-decoration="none">通过传真、PDF 等方式收到订单。</tspan></tspan></text></g><g><text x="52" y="586" fill="#0f172a" font-family="'Noto Sans JP',sans-serif" font-size="12" font-weight="600">5. 订单确认书</text><text x="52" y="606" fill="#0f172a" opacity="0.78" font-family="'Noto Sans JP',sans-serif" font-size="10" font-weight="400"><tspan x="52" dy="0"><tspan font-weight="400" font-style="normal" text-decoration="none">自动完成读取，并在此确认价格核对结果。</tspan></tspan></text></g><g><text x="52" y="686" fill="#0f172a" font-family="'Noto Sans JP',sans-serif" font-size="12" font-weight="600">6. 审批</text></g><g><text x="52" y="766" fill="#0f172a" font-family="'Noto Sans JP',sans-serif" font-size="12" font-weight="600">7. 确认明细</text><text x="52" y="786" fill="#0f172a" opacity="0.78" font-family="'Noto Sans JP',sans-serif" font-size="10" font-weight="400"><tspan x="52" dy="0"><tspan font-weight="400" font-style="normal" text-decoration="none">按行生成订单明细，金额随之确定。</tspan></tspan></text></g><g><text x="52" y="846" fill="#0f172a" font-family="'Noto Sans JP',sans-serif" font-size="12" font-weight="600">8. 工单</text><text x="52" y="866" fill="#0f172a" opacity="0.78" font-family="'Noto Sans JP',sans-serif" font-size="10" font-weight="400"><tspan x="52" dy="0"><tspan font-weight="400" font-style="normal" text-decoration="none">拆分为库存部分和制造部分，制造部分再排列工序。</tspan></tspan></text></g><g><text x="52" y="946" fill="#0f172a" font-family="'Noto Sans JP',sans-serif" font-size="12" font-weight="600">9. 审批</text></g><g><text x="52" y="1026" fill="#0f172a" font-family="'Noto Sans JP',sans-serif" font-size="12" font-weight="600">10. 生产</text><text x="52" y="1046" fill="#0f172a" opacity="0.78" font-family="'Noto Sans JP',sans-serif" font-size="10" font-weight="400"><tspan x="52" dy="0"><tspan font-weight="400" font-style="normal" text-decoration="none">按工序记录开始、完成，以及数量和不良情况。</tspan></tspan></text></g><g><text x="52" y="1106" fill="#0f172a" font-family="'Noto Sans JP',sans-serif" font-size="12" font-weight="600">11. 出货</text><text x="52" y="1126" fill="#0f172a" opacity="0.78" font-family="'Noto Sans JP',sans-serif" font-size="10" font-weight="400"><tspan x="52" dy="0"><tspan font-weight="400" font-style="normal" text-decoration="none">出货会减少库存，并改变订单明细的状态。</tspan></tspan></text></g><g><text x="52" y="1206" fill="#0f172a" font-family="'Noto Sans JP',sans-serif" font-size="12" font-weight="600">12. 送货</text></g><g><text x="52" y="1306" fill="#0f172a" font-family="'Noto Sans JP',sans-serif" font-size="12" font-weight="600">13. 结算处理</text><text x="52" y="1326" fill="#0f172a" opacity="0.78" font-family="'Noto Sans JP',sans-serif" font-size="10" font-weight="400"><tspan x="52" dy="0"><tspan font-weight="400" font-style="normal" text-decoration="none">按客户设定的结算日汇总已送货部分。</tspan></tspan></text></g><g><text x="52" y="1386" fill="#0f172a" font-family="'Noto Sans JP',sans-serif" font-size="12" font-weight="600">14. 请款</text></g><g><rect x="340" y="84" width="218" height="1412" fill="#fffbeb" opacity="0.12" /><rect x="340" y="84" width="218" height="72" fill="#fffbeb" opacity="0.9" /><g><circle cx="368" cy="120" r="16" fill="#ffffff" stroke="#92400e" stroke-width="1.2" /><svg x="357" y="109" width="22" height="22" viewBox="0 0 24 24" fill="none" stroke="#92400e" stroke-width="2"><path d="m22 7-8.991 5.727a2 2 0 0 1-2.009 0L2 7" /><rect x="2" y="4" width="20" height="16" rx="2" /></svg></g><text x="394" y="126" text-anchor="start" fill="#92400e" font-family="'Noto Sans JP',sans-serif" font-size="15" font-weight="700" letter-spacing="0.06em">外部（客户）</text><line x1="340" x2="558" y1="156" y2="156" stroke="#334155" stroke-width="1.2" vector-effect="non-scaling-stroke" /></g><g><rect x="558" y="84" width="218" height="1412" fill="#dbeafe" opacity="0.12" /><rect x="558" y="84" width="218" height="72" fill="#dbeafe" opacity="0.9" /><text x="667" y="126" text-anchor="middle" fill="#1e293b" font-family="'Noto Sans JP',sans-serif" font-size="15" font-weight="700" letter-spacing="0.06em">销售</text><line x1="558" x2="776" y1="156" y2="156" stroke="#334155" stroke-width="1.2" vector-effect="non-scaling-stroke" /></g><g><rect x="776" y="84" width="218" height="1412" fill="#fef3c7" opacity="0.12" /><rect x="776" y="84" width="218" height="72" fill="#fef3c7" opacity="0.9" /><text x="885" y="126" text-anchor="middle" fill="#92400e" font-family="'Noto Sans JP',sans-serif" font-size="15" font-weight="700" letter-spacing="0.06em">销售支持</text><line x1="776" x2="994" y1="156" y2="156" stroke="#334155" stroke-width="1.2" vector-effect="non-scaling-stroke" /></g><g><rect x="994" y="84" width="218" height="1412" fill="#f0fdf4" opacity="0.12" /><rect x="994" y="84" width="218" height="72" fill="#f0fdf4" opacity="0.9" /><text x="1103" y="126" text-anchor="middle" fill="#166534" font-family="'Noto Sans JP',sans-serif" font-size="15" font-weight="700" letter-spacing="0.06em">审批 / 判断</text><line x1="994" x2="1212" y1="156" y2="156" stroke="#334155" stroke-width="1.2" vector-effect="non-scaling-stroke" /></g><g><rect x="1212" y="84" width="218" height="1412" fill="#ccfbf1" opacity="0.12" /><rect x="1212" y="84" width="218" height="72" fill="#ccfbf1" opacity="0.9" /><text x="1321" y="126" text-anchor="middle" fill="#134e4a" font-family="'Noto Sans JP',sans-serif" font-size="15" font-weight="700" letter-spacing="0.06em">生产</text><line x1="1212" x2="1430" y1="156" y2="156" stroke="#334155" stroke-width="1.2" vector-effect="non-scaling-stroke" /></g><g><rect x="1430" y="84" width="218" height="1412" fill="#fce7f3" opacity="0.12" /><rect x="1430" y="84" width="218" height="72" fill="#fce7f3" opacity="0.9" /><text x="1539" y="126" text-anchor="middle" fill="#9d174d" font-family="'Noto Sans JP',sans-serif" font-size="15" font-weight="700" letter-spacing="0.06em">财务</text><line x1="1430" x2="1648" y1="156" y2="156" stroke="#334155" stroke-width="1.2" vector-effect="non-scaling-stroke" /></g><line x1="40" y1="276" x2="1648" y2="276" stroke="#e5e7eb" stroke-width="1" vector-effect="non-scaling-stroke" opacity="0.95" /><line x1="40" y1="376" x2="1648" y2="376" stroke="#e5e7eb" stroke-width="1" vector-effect="non-scaling-stroke" opacity="0.95" /><line x1="40" y1="476" x2="1648" y2="476" stroke="#e5e7eb" stroke-width="1" vector-effect="non-scaling-stroke" opacity="0.95" /><line x1="40" y1="556" x2="1648" y2="556" stroke="#e5e7eb" stroke-width="1" vector-effect="non-scaling-stroke" opacity="0.95" /><line x1="40" y1="656" x2="1648" y2="656" stroke="#e5e7eb" stroke-width="1" vector-effect="non-scaling-stroke" opacity="0.95" /><line x1="40" y1="736" x2="1648" y2="736" stroke="#e5e7eb" stroke-width="1" vector-effect="non-scaling-stroke" opacity="0.95" /><line x1="40" y1="816" x2="1648" y2="816" stroke="#e5e7eb" stroke-width="1" vector-effect="non-scaling-stroke" opacity="0.95" /><line x1="40" y1="916" x2="1648" y2="916" stroke="#e5e7eb" stroke-width="1" vector-effect="non-scaling-stroke" opacity="0.95" /><line x1="40" y1="996" x2="1648" y2="996" stroke="#e5e7eb" stroke-width="1" vector-effect="non-scaling-stroke" opacity="0.95" /><line x1="40" y1="1076" x2="1648" y2="1076" stroke="#e5e7eb" stroke-width="1" vector-effect="non-scaling-stroke" opacity="0.95" /><line x1="40" y1="1176" x2="1648" y2="1176" stroke="#e5e7eb" stroke-width="1" vector-effect="non-scaling-stroke" opacity="0.95" /><line x1="40" y1="1276" x2="1648" y2="1276" stroke="#e5e7eb" stroke-width="1" vector-effect="non-scaling-stroke" opacity="0.95" /><line x1="40" y1="1356" x2="1648" y2="1356" stroke="#e5e7eb" stroke-width="1" vector-effect="non-scaling-stroke" opacity="0.95" /><rect x="340" y="84" width="1308" height="1412" fill="none" stroke="#334155" stroke-width="1.2" vector-effect="non-scaling-stroke" /><line x1="558" x2="558" y1="84" y2="1496" stroke="#334155" stroke-width="1.2" vector-effect="non-scaling-stroke" /><line x1="776" x2="776" y1="84" y2="1496" stroke="#334155" stroke-width="1.2" vector-effect="non-scaling-stroke" /><line x1="994" x2="994" y1="84" y2="1496" stroke="#334155" stroke-width="1.2" vector-effect="non-scaling-stroke" /><line x1="1212" x2="1212" y1="84" y2="1496" stroke="#334155" stroke-width="1.2" vector-effect="non-scaling-stroke" /><line x1="1430" x2="1430" y1="84" y2="1496" stroke="#334155" stroke-width="1.2" vector-effect="non-scaling-stroke" /><line x1="667" y1="258" x2="667" y2="294" stroke="#334155" stroke-width="1.6" marker-end="url(#arrowhead)" /><line x1="667" y1="338" x2="667" y2="394" stroke="#334155" stroke-width="1.6" marker-end="url(#arrowhead)" /><path d="M 667 438 L 667 466 L 449 466 L 449 494" fill="none" stroke="#334155" stroke-width="1.6" marker-end="url(#arrowhead)" /><path d="M 449 538 L 449 556 L 885 556 L 885 574" fill="none" stroke="#334155" stroke-width="1.6" marker-end="url(#arrowhead)" /><path d="M 885 618 L 885 646 L 1103 646 L 1103 674" fill="none" stroke="#334155" stroke-width="1.6" marker-end="url(#arrowhead)" /><path d="M 1103 718 L 1103 736 L 885 736 L 885 754" fill="none" stroke="#334155" stroke-width="1.6" marker-end="url(#arrowhead)" /><line x1="885" y1="798" x2="885" y2="834" stroke="#334155" stroke-width="1.6" marker-end="url(#arrowhead)" /><path d="M 885 878 L 885 906 L 1103 906 L 1103 934" fill="none" stroke="#334155" stroke-width="1.6" marker-end="url(#arrowhead)" /><path d="M 1103 978 L 1103 996 L 1321 996 L 1321 1014" fill="none" stroke="#334155" stroke-width="1.6" marker-end="url(#arrowhead)" /><path d="M 1321 1058 L 1321 1076 L 885 1076 L 885 1094" fill="none" stroke="#334155" stroke-width="1.6" marker-end="url(#arrowhead)" /><line x1="885" y1="1138" x2="885" y2="1194" stroke="#334155" stroke-width="1.6" marker-end="url(#arrowhead)" /><path d="M 885 1238 L 885 1266 L 1539 1266 L 1539 1294" fill="none" stroke="#334155" stroke-width="1.6" marker-end="url(#arrowhead)" /><line x1="1539" y1="1338" x2="1539" y2="1374" stroke="#334155" stroke-width="1.6" marker-end="url(#arrowhead)" /><line x1="667" y1="191" x2="667" y2="214" stroke="#334155" stroke-width="1.6" marker-end="url(#arrowhead)" /><circle cx="667" cy="186" r="5" fill="#334155" /><line x1="1539" y1="1418" x2="1539" y2="1441" stroke="#334155" stroke-width="1.6" marker-end="url(#arrowhead)" /><circle cx="1539" cy="1446" r="5" fill="#334155" /><g><rect x="573" y="214" width="188" height="44" rx="6" fill="#dbeafe" stroke="#2563eb" stroke-width="1.3" /><svg x="581" y="228" width="16" height="16" viewBox="0 0 24 24" fill="none" stroke="#1e40af" stroke-width="2"><path d="M4 14a1 1 0 0 1-.78-1.63l9.9-10.2a.5.5 0 0 1 .86.46l-1.92 6.02A1 1 0 0 0 13 10h7a1 1 0 0 1 .78 1.63l-9.9 10.2a.5.5 0 0 1-.86-.46l1.92-6.02A1 1 0 0 0 11 14z" /></svg><text x="675" y="241" text-anchor="middle" fill="#1e40af" font-family="'Noto Sans JP',sans-serif" font-size="13" font-weight="500">计算单价</text></g><g><rect x="573" y="294" width="188" height="44" rx="6" fill="#dbeafe" stroke="#2563eb" stroke-width="1.3" /><svg x="581" y="308" width="16" height="16" viewBox="0 0 24 24" fill="none" stroke="#1e40af" stroke-width="2"><path d="M4 14a1 1 0 0 1-.78-1.63l9.9-10.2a.5.5 0 0 1 .86.46l-1.92 6.02A1 1 0 0 0 13 10h7a1 1 0 0 1 .78 1.63l-9.9 10.2a.5.5 0 0 1-.86-.46l1.92-6.02A1 1 0 0 0 11 14z" /></svg><text x="675" y="321" text-anchor="middle" fill="#1e40af" font-family="'Noto Sans JP',sans-serif" font-size="13" font-weight="500">创建价格表</text><g><title>价格表</title><path d="M 701 330 H 758 L 766 338 V 370 H 701 Z" fill="#ffffff" stroke="#334155" stroke-width="1.1" /><path d="M 758 330 V 338 H 766" fill="none" stroke="#334155" stroke-width="1" /><text x="731.5" y="342" text-anchor="middle" font-family="'JetBrains Mono',monospace" font-size="9" fill="#0f172a">价格表</text></g></g><g><rect x="573" y="394" width="188" height="44" rx="6" fill="#dbeafe" stroke="#2563eb" stroke-width="1.3" /><svg x="581" y="408" width="16" height="16" viewBox="0 0 24 24" fill="none" stroke="#1e40af" stroke-width="2"><path d="M4 14a1 1 0 0 1-.78-1.63l9.9-10.2a.5.5 0 0 1 .86.46l-1.92 6.02A1 1 0 0 0 13 10h7a1 1 0 0 1 .78 1.63l-9.9 10.2a.5.5 0 0 1-.86-.46l1.92-6.02A1 1 0 0 0 11 14z" /></svg><text x="675" y="421" text-anchor="middle" fill="#1e40af" font-family="'Noto Sans JP',sans-serif" font-size="13" font-weight="500">发行报价单</text><g><title>报价单</title><path d="M 701 430 H 758 L 766 438 V 470 H 701 Z" fill="#f0f9ff" stroke="#2563eb" stroke-width="1.1" /><path d="M 758 430 V 438 H 766" fill="none" stroke="#2563eb" stroke-width="1" /><text x="731.5" y="442" text-anchor="middle" font-family="'JetBrains Mono',monospace" font-size="9" fill="#1e40af">报价单</text></g></g><g><rect x="355" y="494" width="188" height="44" rx="6" fill="#f8fafc" stroke="#64748b" stroke-width="1.3" /><text x="449" y="521" text-anchor="middle" fill="#334155" font-family="'Noto Sans JP',sans-serif" font-size="13" font-weight="500">发送订单</text></g><g><rect x="791" y="574" width="188" height="44" rx="6" fill="#dbeafe" stroke="#2563eb" stroke-width="1.3" /><svg x="799" y="588" width="16" height="16" viewBox="0 0 24 24" fill="none" stroke="#1e40af" stroke-width="2"><path d="M4 14a1 1 0 0 1-.78-1.63l9.9-10.2a.5.5 0 0 1 .86.46l-1.92 6.02A1 1 0 0 0 13 10h7a1 1 0 0 1 .78 1.63l-9.9 10.2a.5.5 0 0 1-.86-.46l1.92-6.02A1 1 0 0 0 11 14z" /></svg><text x="893" y="601" text-anchor="middle" fill="#1e40af" font-family="'Noto Sans JP',sans-serif" font-size="13" font-weight="500">确认订单确认书</text><g><title>订单确认书</title><path d="M 919 610 H 976 L 984 618 V 650 H 919 Z" fill="#fef3c7" stroke="#d97706" stroke-width="1.1" /><path d="M 976 610 V 618 H 984" fill="none" stroke="#d97706" stroke-width="1" /><text x="949.5" y="622" text-anchor="middle" font-family="'JetBrains Mono',monospace" font-size="9" fill="#92400e">订单确认书</text></g></g><g><rect x="1009" y="674" width="188" height="44" rx="6" fill="#dcfce7" stroke="#16a34a" stroke-width="1.3" /><svg x="1017" y="688" width="16" height="16" viewBox="0 0 24 24" fill="none" stroke="#166534" stroke-width="2"><circle cx="12" cy="12" r="10" /><path d="m9 12 2 2 4-4" /></svg><text x="1111" y="701" text-anchor="middle" fill="#166534" font-family="'Noto Sans JP',sans-serif" font-size="13" font-weight="500">审批订单确认书</text></g><g><rect x="791" y="754" width="188" height="44" rx="6" fill="#dbeafe" stroke="#2563eb" stroke-width="1.3" /><svg x="799" y="768" width="16" height="16" viewBox="0 0 24 24" fill="none" stroke="#1e40af" stroke-width="2"><path d="M4 14a1 1 0 0 1-.78-1.63l9.9-10.2a.5.5 0 0 1 .86.46l-1.92 6.02A1 1 0 0 0 13 10h7a1 1 0 0 1 .78 1.63l-9.9 10.2a.5.5 0 0 1-.86-.46l1.92-6.02A1 1 0 0 0 11 14z" /></svg><text x="893" y="781" text-anchor="middle" fill="#1e40af" font-family="'Noto Sans JP',sans-serif" font-size="13" font-weight="500">确认订单明细</text></g><g><rect x="791" y="834" width="188" height="44" rx="6" fill="#dbeafe" stroke="#2563eb" stroke-width="1.3" /><svg x="799" y="848" width="16" height="16" viewBox="0 0 24 24" fill="none" stroke="#1e40af" stroke-width="2"><path d="M4 14a1 1 0 0 1-.78-1.63l9.9-10.2a.5.5 0 0 1 .86.46l-1.92 6.02A1 1 0 0 0 13 10h7a1 1 0 0 1 .78 1.63l-9.9 10.2a.5.5 0 0 1-.86-.46l1.92-6.02A1 1 0 0 0 11 14z" /></svg><text x="893" y="861" text-anchor="middle" fill="#1e40af" font-family="'Noto Sans JP',sans-serif" font-size="13" font-weight="500">创建工单</text><g><title>工单</title><path d="M 919 870 H 976 L 984 878 V 910 H 919 Z" fill="#f5f3ff" stroke="#7c3aed" stroke-width="1.1" /><path d="M 976 870 V 878 H 984" fill="none" stroke="#7c3aed" stroke-width="1" /><text x="949.5" y="882" text-anchor="middle" font-family="'JetBrains Mono',monospace" font-size="9" fill="#5b21b6">工单</text></g></g><g><rect x="1009" y="934" width="188" height="44" rx="6" fill="#dcfce7" stroke="#16a34a" stroke-width="1.3" /><svg x="1017" y="948" width="16" height="16" viewBox="0 0 24 24" fill="none" stroke="#166534" stroke-width="2"><circle cx="12" cy="12" r="10" /><path d="m9 12 2 2 4-4" /></svg><text x="1111" y="961" text-anchor="middle" fill="#166534" font-family="'Noto Sans JP',sans-serif" font-size="13" font-weight="500">审批工单</text></g><g><rect x="1227" y="1014" width="188" height="44" rx="6" fill="#dbeafe" stroke="#2563eb" stroke-width="1.3" /><svg x="1235" y="1028" width="16" height="16" viewBox="0 0 24 24" fill="none" stroke="#1e40af" stroke-width="2"><path d="M4 14a1 1 0 0 1-.78-1.63l9.9-10.2a.5.5 0 0 1 .86.46l-1.92 6.02A1 1 0 0 0 13 10h7a1 1 0 0 1 .78 1.63l-9.9 10.2a.5.5 0 0 1-.86-.46l1.92-6.02A1 1 0 0 0 11 14z" /></svg><text x="1329" y="1041" text-anchor="middle" fill="#1e40af" font-family="'Noto Sans JP',sans-serif" font-size="13" font-weight="500">执行工序</text></g><g><rect x="791" y="1094" width="188" height="44" rx="6" fill="#dbeafe" stroke="#2563eb" stroke-width="1.3" /><svg x="799" y="1108" width="16" height="16" viewBox="0 0 24 24" fill="none" stroke="#1e40af" stroke-width="2"><path d="M4 14a1 1 0 0 1-.78-1.63l9.9-10.2a.5.5 0 0 1 .86.46l-1.92 6.02A1 1 0 0 0 13 10h7a1 1 0 0 1 .78 1.63l-9.9 10.2a.5.5 0 0 1-.86-.46l1.92-6.02A1 1 0 0 0 11 14z" /></svg><text x="893" y="1121" text-anchor="middle" fill="#1e40af" font-family="'Noto Sans JP',sans-serif" font-size="13" font-weight="500">以出货单出货</text><g><title>出货单</title><path d="M 919 1130 H 976 L 984 1138 V 1170 H 919 Z" fill="#fff7ed" stroke="#ea580c" stroke-width="1.1" /><path d="M 976 1130 V 1138 H 984" fill="none" stroke="#ea580c" stroke-width="1" /><text x="949.5" y="1142" text-anchor="middle" font-family="'JetBrains Mono',monospace" font-size="9" fill="#9a3412">出货单</text></g></g><g><rect x="791" y="1194" width="188" height="44" rx="6" fill="#dbeafe" stroke="#2563eb" stroke-width="1.3" /><svg x="799" y="1208" width="16" height="16" viewBox="0 0 24 24" fill="none" stroke="#1e40af" stroke-width="2"><path d="M4 14a1 1 0 0 1-.78-1.63l9.9-10.2a.5.5 0 0 1 .86.46l-1.92 6.02A1 1 0 0 0 13 10h7a1 1 0 0 1 .78 1.63l-9.9 10.2a.5.5 0 0 1-.86-.46l1.92-6.02A1 1 0 0 0 11 14z" /></svg><text x="893" y="1221" text-anchor="middle" fill="#1e40af" font-family="'Noto Sans JP',sans-serif" font-size="13" font-weight="500">以送货单送货</text><g><title>送货单</title><path d="M 919 1230 H 976 L 984 1238 V 1270 H 919 Z" fill="#fff7ed" stroke="#ea580c" stroke-width="1.1" /><path d="M 976 1230 V 1238 H 984" fill="none" stroke="#ea580c" stroke-width="1" /><text x="949.5" y="1242" text-anchor="middle" font-family="'JetBrains Mono',monospace" font-size="9" fill="#9a3412">送货单</text></g></g><g><rect x="1445" y="1294" width="188" height="44" rx="6" fill="#dbeafe" stroke="#2563eb" stroke-width="1.3" /><svg x="1453" y="1308" width="16" height="16" viewBox="0 0 24 24" fill="none" stroke="#1e40af" stroke-width="2"><path d="M4 14a1 1 0 0 1-.78-1.63l9.9-10.2a.5.5 0 0 1 .86.46l-1.92 6.02A1 1 0 0 0 13 10h7a1 1 0 0 1 .78 1.63l-9.9 10.2a.5.5 0 0 1-.86-.46l1.92-6.02A1 1 0 0 0 11 14z" /></svg><text x="1547" y="1321" text-anchor="middle" fill="#1e40af" font-family="'Noto Sans JP',sans-serif" font-size="13" font-weight="500">按结算日结算</text></g><g><rect x="1445" y="1374" width="188" height="44" rx="6" fill="#dbeafe" stroke="#2563eb" stroke-width="1.3" /><svg x="1453" y="1388" width="16" height="16" viewBox="0 0 24 24" fill="none" stroke="#1e40af" stroke-width="2"><path d="M4 14a1 1 0 0 1-.78-1.63l9.9-10.2a.5.5 0 0 1 .86.46l-1.92 6.02A1 1 0 0 0 13 10h7a1 1 0 0 1 .78 1.63l-9.9 10.2a.5.5 0 0 1-.86-.46l1.92-6.02A1 1 0 0 0 11 14z" /></svg><text x="1547" y="1401" text-anchor="middle" fill="#1e40af" font-family="'Noto Sans JP',sans-serif" font-size="13" font-weight="500">发送请款单</text><g><title>请款单</title><path d="M 1573 1410 H 1630 L 1638 1418 V 1450 H 1573 Z" fill="#fdf2f8" stroke="#db2777" stroke-width="1.1" /><path d="M 1630 1410 V 1418 H 1638" fill="none" stroke="#db2777" stroke-width="1" /><text x="1603.5" y="1422" text-anchor="middle" font-family="'JetBrains Mono',monospace" font-size="9" fill="#9d174d">请款单</text></g></g><text x="844" y="48" text-anchor="middle" fill="#0f172a" font-family="'Noto Sans JP','Noto Sans',sans-serif" font-size="24" font-weight="600" letter-spacing="0.05em">标准流程 — 从接单到请款</text></svg>
