<svg viewBox="0 0 938 1016" xmlns="http://www.w3.org/2000/svg" style="width:100%;height:auto;background:#ffffff;display:block" id="swimlane-svg"><defs><marker id="arrowhead" viewBox="0 0 10 10" refX="9" refY="5" markerWidth="7" markerHeight="7" orient="auto-start-reverse"><path d="M 0 0 L 10 5 L 0 10 z" fill="#334155" /></marker><pattern id="gridp" width="24" height="24" patternUnits="userSpaceOnUse"><path d="M 24 0 L 0 0 0 24" fill="none" stroke="#e5e7eb" stroke-width="0.5" /></pattern></defs><rect x="40" y="84" width="858" height="908" fill="url(#gridp)" opacity="0.5" /><rect x="40" y="84" width="300" height="72" fill="white" opacity="0.9" /><text x="52" y="114" fill="#0f172a" font-family="'Noto Sans JP',sans-serif" font-size="13" font-weight="700">Step</text><text x="52" y="134" fill="#0f172a" opacity="0.7" font-family="'Noto Sans JP',sans-serif" font-size="11">Description</text><line x1="40" x2="340" y1="156" y2="156" stroke="#334155" stroke-width="1.2" vector-effect="non-scaling-stroke" /><rect x="40" y="84" width="300" height="908" fill="none" stroke="#334155" stroke-width="1.2" vector-effect="non-scaling-stroke" /><g><text x="52" y="226" fill="#0f172a" font-family="'Noto Sans JP',sans-serif" font-size="12" font-weight="600">1. Delivery order</text><text x="52" y="246" fill="#0f172a" opacity="0.78" font-family="'Noto Sans JP',sans-serif" font-size="10" font-weight="400"><tspan x="52" dy="0"><tspan font-weight="400" font-style="normal" text-decoration="none">Selecting an order acceptance fills in the order lines that c</tspan></tspan><tspan x="52" dy="14"><tspan font-weight="400" font-style="normal" text-decoration="none">an be shipped. Decide the lot, quantity, and shipping site.</tspan></tspan></text></g><g><text x="52" y="326" fill="#0f172a" font-family="'Noto Sans JP',sans-serif" font-size="12" font-weight="600">2. Confirm</text><text x="52" y="346" fill="#0f172a" opacity="0.78" font-family="'Noto Sans JP',sans-serif" font-size="10" font-weight="400"><tspan x="52" dy="0"><tspan font-weight="400" font-style="normal" text-decoration="none">Confirm the content so it is ready to ship.</tspan></tspan></text></g><g><text x="52" y="406" fill="#0f172a" font-family="'Noto Sans JP',sans-serif" font-size="12" font-weight="600">3. Shipment</text><text x="52" y="426" fill="#0f172a" opacity="0.78" font-family="'Noto Sans JP',sans-serif" font-size="10" font-weight="400"><tspan x="52" dy="0"><tspan font-weight="400" font-style="normal" text-decoration="none">Once actually sent out, mark it "Shipped".</tspan></tspan></text></g><g><text x="52" y="486" fill="#0f172a" font-family="'Noto Sans JP',sans-serif" font-size="12" font-weight="600">4. Stock update</text><text x="52" y="506" fill="#0f172a" opacity="0.78" font-family="'Noto Sans JP',sans-serif" font-size="10" font-weight="400"><tspan x="52" dy="0"><tspan font-weight="400" font-style="normal" text-decoration="none">The shipping site's stock decreases, and the order line's s</tspan></tspan><tspan x="52" dy="14"><tspan font-weight="400" font-style="normal" text-decoration="none">tatus changes to "Partially shipped" or "Shipped".</tspan></tspan></text></g><g><text x="52" y="656" fill="#0f172a" font-family="'Noto Sans JP',sans-serif" font-size="12" font-weight="600">5. Delivery note</text><text x="52" y="676" fill="#0f172a" opacity="0.78" font-family="'Noto Sans JP',sans-serif" font-size="10" font-weight="400"><tspan x="52" dy="0"><tspan font-weight="400" font-style="normal" text-decoration="none">An issued delivery note is created at the same time as conf</tspan></tspan><tspan x="52" dy="14"><tspan font-weight="400" font-style="normal" text-decoration="none">irmation. Delivery method (standard / direct to end user) an</tspan></tspan><tspan x="52" dy="14"><tspan font-weight="400" font-style="normal" text-decoration="none">d whether to show the price are inherited from the order acc</tspan></tspan><tspan x="52" dy="14"><tspan font-weight="400" font-style="normal" text-decoration="none">eptance.</tspan></tspan></text></g><g><text x="52" y="762" fill="#0f172a" font-family="'Noto Sans JP',sans-serif" font-size="12" font-weight="600">6. Delivery</text><text x="52" y="782" fill="#0f172a" opacity="0.78" font-family="'Noto Sans JP',sans-serif" font-size="10" font-weight="400"><tspan x="52" dy="0"><tspan font-weight="400" font-style="normal" text-decoration="none">Once it arrives, mark it "Delivered". A shipment that reache</tspan></tspan><tspan x="52" dy="14"><tspan font-weight="400" font-style="normal" text-decoration="none">s this point becomes eligible for billing.</tspan></tspan></text></g><g><text x="52" y="842" fill="#0f172a" font-family="'Noto Sans JP',sans-serif" font-size="12" font-weight="600">7. Stock storage</text><text x="52" y="862" fill="#0f172a" opacity="0.78" font-family="'Noto Sans JP',sans-serif" font-size="10" font-weight="400"><tspan x="52" dy="0"><tspan font-weight="400" font-style="normal" text-decoration="none">A type used to keep spare production in-house. It does not </tspan></tspan><tspan x="52" dy="14"><tspan font-weight="400" font-style="normal" text-decoration="none">proceed to billing.</tspan></tspan></text></g><g><rect x="340" y="84" width="322" height="908" fill="#ffedd5" opacity="0.12" /><rect x="340" y="84" width="322" height="72" fill="#ffedd5" opacity="0.9" /><text x="501" y="126" text-anchor="middle" fill="#9a3412" font-family="'Noto Sans JP',sans-serif" font-size="15" font-weight="700" letter-spacing="0.06em">Shipping</text><line x1="340" x2="662" y1="156" y2="156" stroke="#334155" stroke-width="1.2" vector-effect="non-scaling-stroke" /></g><g><rect x="662" y="84" width="236" height="908" fill="#eef2ff" opacity="0.12" /><rect x="662" y="84" width="236" height="72" fill="#eef2ff" opacity="0.9" /><g><circle cx="690" cy="120" r="16" fill="#ffffff" stroke="#3730a3" stroke-width="1.2" /><svg x="679" y="109" width="22" height="22" viewBox="0 0 24 24" fill="none" stroke="#3730a3" stroke-width="2"><ellipse cx="12" cy="5" rx="9" ry="3" /><path d="M3 5V19A9 3 0 0 0 21 19V5" /><path d="M3 12A9 3 0 0 0 21 12" /></svg></g><text x="716" y="126" text-anchor="start" fill="#3730a3" font-family="'Noto Sans JP',sans-serif" font-size="15" font-weight="700" letter-spacing="0.06em">System</text><line x1="662" x2="898" y1="156" y2="156" stroke="#334155" stroke-width="1.2" vector-effect="non-scaling-stroke" /></g><line x1="40" y1="296" x2="898" y2="296" stroke="#e5e7eb" stroke-width="1" vector-effect="non-scaling-stroke" opacity="0.95" /><line x1="40" y1="376" x2="898" y2="376" stroke="#e5e7eb" stroke-width="1" vector-effect="non-scaling-stroke" opacity="0.95" /><line x1="40" y1="456" x2="898" y2="456" stroke="#e5e7eb" stroke-width="1" vector-effect="non-scaling-stroke" opacity="0.95" /><line x1="40" y1="626" x2="898" y2="626" stroke="#e5e7eb" stroke-width="1" vector-effect="non-scaling-stroke" opacity="0.95" /><line x1="40" y1="732" x2="898" y2="732" stroke="#e5e7eb" stroke-width="1" vector-effect="non-scaling-stroke" opacity="0.95" /><line x1="40" y1="812" x2="898" y2="812" stroke="#e5e7eb" stroke-width="1" vector-effect="non-scaling-stroke" opacity="0.95" /><line x1="40" y1="952" x2="898" y2="952" stroke="#e5e7eb" stroke-width="1" vector-effect="non-scaling-stroke" opacity="0.95" /><rect x="340" y="84" width="558" height="908" fill="none" stroke="#334155" stroke-width="1.2" vector-effect="non-scaling-stroke" /><line x1="662" x2="662" y1="84" y2="992" stroke="#334155" stroke-width="1.2" vector-effect="non-scaling-stroke" /><g><path d="M 780 541 L 850 566 L 780 591 L 710 566 Z" fill="#eff6ff" stroke="#2563eb" stroke-width="1.8" /><text x="780" y="570" text-anchor="middle" font-family="'Noto Sans JP',sans-serif" font-size="13" font-weight="600" fill="#2563eb">Type</text><g><path d="M 780 591 L 780 644" fill="none" stroke="#334155" stroke-width="1.6" marker-end="url(#arrowhead)" /></g><g><path d="M 780 591 L 780 601 L 553 601 L 553 830" fill="none" stroke="#334155" stroke-width="1.6" marker-end="url(#arrowhead)" /></g><path d="M 449 794 L 449 894 L 553 894 L 553 908" fill="none" stroke="#334155" stroke-width="1.6" /><path d="M 553 874 L 553 894 L 553 894 L 553 908" fill="none" stroke="#334155" stroke-width="1.6" /><path d="M 553 908 L 573 922 L 553 936 L 533 922 Z" fill="#eff6ff" stroke="#2563eb" stroke-width="1.6" /></g><line x1="501" y1="258" x2="501" y2="314" stroke="#334155" stroke-width="1.6" marker-end="url(#arrowhead)" /><line x1="501" y1="358" x2="501" y2="394" stroke="#334155" stroke-width="1.6" marker-end="url(#arrowhead)" /><path d="M 501 438 L 501 456 L 780 456 L 780 474" fill="none" stroke="#334155" stroke-width="1.6" marker-end="url(#arrowhead)" /><path d="M 780 688 L 780 719 L 449 719 L 449 750" fill="none" stroke="#334155" stroke-width="1.6" marker-end="url(#arrowhead)" /><line x1="501" y1="191" x2="501" y2="214" stroke="#334155" stroke-width="1.6" marker-end="url(#arrowhead)" /><circle cx="501" cy="186" r="5" fill="#334155" /><line x1="553" y1="936" x2="553" y2="959" stroke="#334155" stroke-width="1.6" marker-end="url(#arrowhead)" /><circle cx="553" cy="964" r="5" fill="#334155" /><g><rect x="407" y="214" width="188" height="44" rx="6" fill="#dbeafe" stroke="#2563eb" stroke-width="1.3" /><svg x="415" y="228" width="16" height="16" viewBox="0 0 24 24" fill="none" stroke="#1e40af" stroke-width="2"><path d="M4 14a1 1 0 0 1-.78-1.63l9.9-10.2a.5.5 0 0 1 .86.46l-1.92 6.02A1 1 0 0 0 13 10h7a1 1 0 0 1 .78 1.63l-9.9 10.2a.5.5 0 0 1-.86-.46l1.92-6.02A1 1 0 0 0 11 14z" /></svg><text x="509" y="241" text-anchor="middle" fill="#1e40af" font-family="'Noto Sans JP',sans-serif" font-size="13" font-weight="500">Create a delivery …</text><g><title>Delivery order</title><path d="M 535 250 H 592 L 600 258 V 290 H 535 Z" fill="#fff7ed" stroke="#ea580c" stroke-width="1.1" /><path d="M 592 250 V 258 H 600" fill="none" stroke="#ea580c" stroke-width="1" /><text x="565.5" y="262" text-anchor="middle" font-family="'JetBrains Mono',monospace" font-size="9" fill="#9a3412">Delivery…</text></g></g><g><rect x="407" y="314" width="188" height="44" rx="6" fill="#dbeafe" stroke="#2563eb" stroke-width="1.3" /><svg x="415" y="328" width="16" height="16" viewBox="0 0 24 24" fill="none" stroke="#1e40af" stroke-width="2"><path d="M4 14a1 1 0 0 1-.78-1.63l9.9-10.2a.5.5 0 0 1 .86.46l-1.92 6.02A1 1 0 0 0 13 10h7a1 1 0 0 1 .78 1.63l-9.9 10.2a.5.5 0 0 1-.86-.46l1.92-6.02A1 1 0 0 0 11 14z" /></svg><text x="509" y="341" text-anchor="middle" fill="#1e40af" font-family="'Noto Sans JP',sans-serif" font-size="13" font-weight="500">Confirm the delive…</text></g><g><rect x="407" y="394" width="188" height="44" rx="6" fill="#dbeafe" stroke="#2563eb" stroke-width="1.3" /><svg x="415" y="408" width="16" height="16" viewBox="0 0 24 24" fill="none" stroke="#1e40af" stroke-width="2"><path d="M4 14a1 1 0 0 1-.78-1.63l9.9-10.2a.5.5 0 0 1 .86.46l-1.92 6.02A1 1 0 0 0 13 10h7a1 1 0 0 1 .78 1.63l-9.9 10.2a.5.5 0 0 1-.86-.46l1.92-6.02A1 1 0 0 0 11 14z" /></svg><text x="509" y="421" text-anchor="middle" fill="#1e40af" font-family="'Noto Sans JP',sans-serif" font-size="13" font-weight="500">Record the shipment</text></g><g><rect x="686" y="474" width="188" height="44" fill="#e0e7ff" stroke="#4f46e5" stroke-width="1.3" /><svg x="694" y="488" width="16" height="16" viewBox="0 0 24 24" fill="none" stroke="#3730a3" stroke-width="2"><ellipse cx="12" cy="5" rx="9" ry="3" /><path d="M3 5V19A9 3 0 0 0 21 19V5" /><path d="M3 12A9 3 0 0 0 21 12" /></svg><text x="788" y="501" text-anchor="middle" fill="#3730a3" font-family="'Noto Sans JP',sans-serif" font-size="13" font-weight="500">Reduce stock</text></g><g><rect x="686" y="644" width="188" height="44" fill="#e0e7ff" stroke="#4f46e5" stroke-width="1.3" /><svg x="694" y="658" width="16" height="16" viewBox="0 0 24 24" fill="none" stroke="#3730a3" stroke-width="2"><ellipse cx="12" cy="5" rx="9" ry="3" /><path d="M3 5V19A9 3 0 0 0 21 19V5" /><path d="M3 12A9 3 0 0 0 21 12" /></svg><text x="788" y="671" text-anchor="middle" fill="#3730a3" font-family="'Noto Sans JP',sans-serif" font-size="13" font-weight="500">Issue a delivery n…</text><g><title>Delivery note</title><path d="M 814 680 H 871 L 879 688 V 720 H 814 Z" fill="#fff7ed" stroke="#ea580c" stroke-width="1.1" /><path d="M 871 680 V 688 H 879" fill="none" stroke="#ea580c" stroke-width="1" /><text x="844.5" y="692" text-anchor="middle" font-family="'JetBrains Mono',monospace" font-size="9" fill="#9a3412">Delivery…</text></g></g><g><rect x="355" y="750" width="188" height="44" rx="6" fill="#dbeafe" stroke="#2563eb" stroke-width="1.3" /><svg x="363" y="764" width="16" height="16" viewBox="0 0 24 24" fill="none" stroke="#1e40af" stroke-width="2"><path d="M4 14a1 1 0 0 1-.78-1.63l9.9-10.2a.5.5 0 0 1 .86.46l-1.92 6.02A1 1 0 0 0 13 10h7a1 1 0 0 1 .78 1.63l-9.9 10.2a.5.5 0 0 1-.86-.46l1.92-6.02A1 1 0 0 0 11 14z" /></svg><text x="457" y="777" text-anchor="middle" fill="#1e40af" font-family="'Noto Sans JP',sans-serif" font-size="13" font-weight="500">Mark as delivered</text></g><g><polygon points="473,830 633,830 647,852 633,874 473,874 459,852" fill="#f4f4f5" stroke="#71717a" stroke-width="1.3" /><svg x="473" y="844" width="16" height="16" viewBox="0 0 24 24" fill="none" stroke="#52525b" stroke-width="2"><circle cx="12" cy="12" r="10" /><path d="M12 6v6l4 2" /></svg><text x="561" y="857" text-anchor="middle" fill="#52525b" font-family="'Noto Sans JP',sans-serif" font-size="13" font-weight="500">Store in-house</text></g><g><rect x="737.5" y="608" width="85" height="20" rx="3" fill="#ffedd5" fill-opacity="0.8" stroke="#c2410c" stroke-width="0.9" /><text x="780" y="623" text-anchor="middle" font-size="11" font-weight="600" font-family="'Noto Sans JP',sans-serif" fill="#c2410c">Dispatch</text></g><g><path d="M 780 518 L 780 541" fill="none" stroke="#334155" stroke-width="1.6" marker-end="url(#arrowhead)" /></g><text x="469" y="48" text-anchor="middle" fill="#0f172a" font-family="'Noto Sans JP','Noto Sans',sans-serif" font-size="24" font-weight="600" letter-spacing="0.05em">Shipping flow — From delivery order to delivery</text></svg>
