<?xml version="1.0" encoding="UTF-8"?>
<svg id="Layer_1" data-name="Layer 1" xmlns="http://www.w3.org/2000/svg" viewBox="0 0 600 600">
  <defs>
    <style>
      .cls-1 {
        fill: #ed1d25;
      }

      .cls-2 {
        fill: #0396da;
      }

      .cls-3 {
        fill: #272223;
      }
    </style>
  </defs>
  <path class="cls-3" d="M90.93,247.58c-5.12-5.48-1.73-14.95-.05-21.35,10.42-39.64,38.19-77.63,70.24-102.64,17.56-13.7,41.65-19.73,31.27-48.15-.81-2.22-2.8-4.74-3.15-6.9-1.78-11.18,8.27-13.15,16.57-15.52,43.11-12.3,91.3-5.93,131.95,11.75,16.32,7.1,32.47,20.45,48.5,3.83,5.57-5.77,7.48-15.96,18.22-12.25,6.13,2.12,20.17,18.64,24.61,24.31,23.02,29.4,38.64,68.53,42.24,105.84,1.65,17.13-2.75,33.55,16.97,41.32,6.16,2.43,9.82,1.6,15.38,2.71,9.04,1.8,8.33,10.97,6.86,17.94-10.05,47.55-43.91,88.8-82.55,116.46-10.44,7.47-23.59,12.06-23.59,27.86,0,8.55,7.48,18.06,5.81,25.39-1.41,6.21-11.36,8.23-16.6,9.53-45.04,11.11-90.04,7.18-132.27-11.83-15.93-7.17-28.12-18.96-45.27-5.54-7.36,5.76-8.69,16.08-19.79,14.3-4.67-.75-15.9-12.72-19.48-16.7-27.96-31.08-44.43-74.19-48.57-115.6-1.83-18.28,1.12-35.73-22.08-40.9-4.91-1.09-11.48.11-15.22-3.88ZM498.81,243.13c-12.46-2.16-26.51-6.53-32.97-18.31-7.05-12.87-5.3-20.18-6.58-33.62-3.67-38.41-17.29-76.23-42.54-105.55-4.54-5.28-9.51-10.18-14.42-15.11-.51-.45-.81-.27-1.33,0-1.96,1.01-8.87,8.84-11.75,11.08-22.71,17.6-42.19.46-63.53-8.81-29.63-12.87-81.32-18.63-112.36-9.59-3,.87-10.33,2.87-9.92,6.53s3.32,8.42,3.8,12.98c3.39,32.08-27.61,40.61-46.84,57.53-9.03,7.95-18.57,18.75-26.11,28.17-16.62,20.77-26.98,42.49-33.52,68.37.03,2.01,6.43,2.19,8.56,2.78,34.5,9.61,29,33.57,32.32,62.16,4.1,35.27,23.29,75.94,47.9,101.53,1.78,1.85,6.41,6.67,8.37,7.72.54.29.84.63,1.37,0,7.64-11.55,20.89-20.04,35.16-19.11,12.41.81,22.52,8.63,33.4,13.51,30.04,13.46,67.89,19.17,100.54,15.2,9.45-1.15,18.6-3.96,27.86-5.98-.65-10.17-5.85-21.8-2.67-31.82,5.75-18.13,34.01-31.48,48.3-44.17,10.32-9.17,23.58-25.3,31.77-36.58,12.63-17.42,20.19-38.08,25.19-58.9Z"/>
  <path class="cls-3" d="M142.96,457.53v37.52l20.1-37.52h23.46l-.81,2.21-22.31,34.01-.35,1.58,24.8,49.31h-22.78l-15.76-34.83c-.71-.92-.63-.74-1.3.02s-5.06,7.22-5.06,7.68v27.14h-19.43v-87.1h19.43Z"/>
  <path class="cls-3" d="M248.18,457.53v37.52l20.1-37.52h23.46l-23.89,37.19,24.56,49.91h-21.78l-16.08-34.84c-.77-1-.63-.57-1.35-.01-.38.3-5.02,6.62-5.02,7.05v27.81h-19.43v-87.1h19.43Z"/>
  <path class="cls-3" d="M79.89,458.95l-3.28,16.68c-19.04-7.87-34.38,2.07-35.54,22.41-1.34,23.5,12.44,35.74,35.54,28.5-.07,2.92,3.17,13.82,2.64,15.66-.48,1.64-9.78,2.99-11.65,3.13-33.29,2.45-49.92-17.46-47.26-49.93s31.32-46.01,59.56-36.45Z"/>
  <path class="cls-3" d="M517.57,543.3v-53.6c19.48-2.2,39.95-1.94,41.58,22.42,1.87,28.02-17.2,34.48-41.58,31.19ZM529.64,533.92c19.99,4.38,22.75-33.18,5.64-35.45-1.01-.13-5.64-.41-5.64.94v34.51Z"/>
  <path class="cls-3" d="M367.98,488.54c32.22-3.68,32.54,51.93,6.46,55.37-34.38,4.53-34.67-52.15-6.46-55.37ZM370.48,498.75c-10.33,0-10.5,18.72-8.73,25.81,3.24,13.02,14.75,12.36,17.48-.65,1.26-6,1-15.95-2.25-21.28-1.46-2.4-3.62-3.88-6.5-3.88Z"/>
  <path class="cls-3" d="M341.99,500.42c-14.12-4.97-23.01,3.54-22.13,17.78.82,13.3,9.91,16.91,22.06,14.46l1.36,9.91c-23.64,6.98-40.75-8.77-35.94-32.93,3.41-17.15,20.23-25.41,36.39-19.3,1,1.47-1.66,7.94-1.73,10.08Z"/>
  <path class="cls-3" d="M511.54,489.03v10.39c0,.07-.93,1.01-1.01,1.01h-11.73v42.88h-12.06v-42.88h-11.73c-1.53,0-1.53-11.39,0-11.39h36.52Z"/>
  <path class="cls-3" d="M453.91,489.03v43.55h17.09c1.52,0,1.52,10.72,0,10.72h-29.82v-54.27h12.73Z"/>
  <path class="cls-3" d="M97.21,521.34c18.15-3.74,19.68,24.5,3.2,24.5-15.04,0-14.75-22.12-3.2-24.5Z"/>
  <path class="cls-3" d="M213.76,542.39c-5.84,6.22-18.22,3.06-19.71-5.62-3.42-19.97,24.84-21.55,22.62-1.18-.24,2.18-1.42,5.2-2.92,6.8Z"/>
  <path class="cls-3" d="M433.8,529.23c.85.83-3.56,11.56-4.37,13.38-.6,1.34-4.63,9.67-5.11,9.97-.8.5-6.25-.1-7.93.77l5.42-23.38,11.99-.73Z"/>
  <path class="cls-3" d="M571.02,528.7c10.24-1.94,11.63,13.23,4.36,15.1-11.84,3.04-13.24-13.42-4.36-15.1Z"/>
  <path class="cls-3" d="M404.82,528.7c11.15-2.16,12.25,17.2-.12,15.23-7.55-1.2-7.56-13.74.12-15.23Z"/>
  <path class="cls-1" d="M424.33,149.23l-26.33,19.56c-23.19-29.43-59.52-50.34-97.92-49.66-62.88,1.12-115.43,47.49-122.27,110.25-5.49,50.42,28.74,105.96,76.23,123.45,54.56,20.1,102.27,4.65,140.57-36.67,1.08-1.16,3.64-5.54,4.66-5.4l23.82,23.14c-23.16,30.83-61.12,54.91-99.64,60.54-52.73,7.71-119.11-16.82-148.6-62.26-53.33-82.16-34.15-177.2,50.33-227.63,62.13-37.08,148.89-19.14,193.86,36.41,1.15,1.42,6.04,6.97,5.29,8.27Z"/>
  <path class="cls-2" d="M364.11,151.33v52.26l65.59-48.15c3.05,5.03,6.75,9.77,9.39,15.06,1.09,2.2,6.1,13.46,5.14,14.98l-62.01,47.25,62.85,63.52c-2.04,5.71-4.83,11.06-7.8,16.33-.98,1.74-7.55,13.14-8.23,13.54-.47.27-.99.11-1.48-.02l-63.45-61.54v65.66h-34.18v-178.9h34.18Z"/>
  <polygon class="cls-2" points="254.21 152 254.21 203.59 322.56 152.67 322.56 194.54 272.31 233.41 322.56 282.99 322.56 328.22 254.21 265.23 254.21 329.56 220.03 329.56 220.03 152 254.21 152"/>
</svg>